<?xml version="1.0" encoding="UTF-8"?>
<svg xmlns="http://www.w3.org/2000/svg" xmlns:xlink="http://www.w3.org/1999/xlink" width="200pt" height="200pt" viewBox="0 0 200 200" version="1.1">
<g id="surface1">
<path style=" stroke:none;fill-rule:evenodd;fill:rgb(16.470588%,16.470588%,37.254902%);fill-opacity:1;" d="M 100 0 C 44.777344 0 0 44.769531 0 99.996094 C 0 155.222656 44.773438 199.992188 100 199.992188 C 155.226562 199.992188 200 155.222656 200 99.996094 C 200 44.769531 155.230469 0 100 0 Z M 100 29.898438 C 118.269531 29.898438 133.074219 44.710938 133.074219 62.976562 C 133.074219 81.242188 118.269531 96.050781 100 96.050781 C 81.734375 96.050781 66.929688 81.242188 66.929688 62.976562 C 66.929688 44.710938 81.734375 29.898438 100 29.898438 Z M 99.976562 173.847656 C 81.753906 173.847656 65.0625 167.210938 52.1875 156.222656 C 49.050781 153.550781 47.242188 149.632812 47.242188 145.507812 C 47.242188 126.988281 62.234375 112.164062 80.761719 112.164062 L 119.253906 112.164062 C 137.78125 112.164062 152.71875 126.988281 152.71875 145.507812 C 152.71875 149.632812 150.914062 153.542969 147.773438 156.21875 C 134.902344 167.210938 118.207031 173.847656 99.976562 173.847656 Z M 99.976562 173.847656 "/>
</g>
</svg>
